<svg width="132" height="35" viewBox="0 0 132 35" fill="none" xmlns="http://www.w3.org/2000/svg">
<g clip-path="url(#clip0)">
<path d="M25.9318 13.1761C25.9453 13.3647 25.9453 13.5533 25.9453 13.7418C25.9453 19.4935 21.5676 26.1209 13.5663 26.1209C11.1013 26.1209 8.81136 25.4069 6.88513 24.1677C7.23537 24.2081 7.57209 24.2216 7.9358 24.2216C9.96975 24.2216 11.8421 23.5346 13.3373 22.3627C11.4245 22.3223 9.8216 21.0696 9.26932 19.3454C9.53874 19.3858 9.80812 19.4127 10.091 19.4127C10.4816 19.4127 10.8723 19.3588 11.236 19.2646C9.24241 18.8605 7.74718 17.1094 7.74718 14.9946V14.9407C8.32637 15.264 8.99993 15.466 9.7138 15.4929C8.5419 14.7117 7.77413 13.3781 7.77413 11.8695C7.77413 11.0613 7.98961 10.3204 8.3668 9.67387C10.5086 12.314 13.7279 14.0381 17.3379 14.2268C17.2705 13.9035 17.2301 13.5668 17.2301 13.23C17.2301 10.8323 19.1698 8.87915 21.5809 8.87915C22.8337 8.87915 23.9651 9.40448 24.7599 10.2531C25.7432 10.0645 26.6861 9.70082 27.5213 9.20243C27.1979 10.2127 26.511 11.0613 25.6085 11.6001C26.4841 11.5059 27.3327 11.2633 28.1139 10.9266C27.5213 11.7887 26.7804 12.5564 25.9318 13.1761V13.1761Z" fill="white"/>
</g>
<circle cx="17.4995" cy="17.5003" r="17.2407" stroke="white" stroke-width="0.517467"/>
<g clip-path="url(#clip1)">
<path d="M62.1808 23.3204C62.1808 23.406 62.0824 23.4745 61.9583 23.4745C61.817 23.4874 61.7186 23.4189 61.7186 23.3204C61.7186 23.2348 61.817 23.1664 61.9412 23.1664C62.0696 23.1535 62.1808 23.222 62.1808 23.3204ZM60.8498 23.1278C60.8198 23.2134 60.9054 23.3119 61.0338 23.3376C61.1451 23.3804 61.2735 23.3376 61.2992 23.252C61.3248 23.1664 61.2435 23.0679 61.1151 23.0294C61.0038 22.9994 60.8797 23.0422 60.8498 23.1278ZM62.7415 23.0551C62.6174 23.085 62.5318 23.1664 62.5446 23.2648C62.5575 23.3504 62.6688 23.406 62.7972 23.3761C62.9213 23.3461 63.0069 23.2648 62.994 23.1792C62.9812 23.0979 62.8656 23.0422 62.7415 23.0551ZM65.5578 6.65405C59.6214 6.65405 55.0803 11.1609 55.0803 17.0973C55.0803 21.8438 58.0677 25.9056 62.3349 27.3351C62.8828 27.4335 63.0754 27.0954 63.0754 26.8172C63.0754 26.5519 63.0625 25.0881 63.0625 24.1893C63.0625 24.1893 60.0665 24.8313 59.4373 22.9138C59.4373 22.9138 58.9494 21.6684 58.2475 21.3473C58.2475 21.3473 57.2674 20.6754 58.316 20.6882C58.316 20.6882 59.3817 20.7738 59.9681 21.7925C60.9054 23.4446 62.4762 22.9695 63.0882 22.687C63.1866 22.0022 63.4648 21.5271 63.773 21.2446C61.3805 20.9793 58.9665 20.6326 58.9665 16.5152C58.9665 15.3382 59.2918 14.7476 59.9766 13.9943C59.8653 13.7161 59.5015 12.569 60.0879 11.0881C60.9824 10.8099 63.0411 12.2438 63.0411 12.2438C63.8971 12.0041 64.8173 11.88 65.729 11.88C66.6406 11.88 67.5608 12.0041 68.4168 12.2438C68.4168 12.2438 70.4755 10.8057 71.37 11.0881C71.9564 12.5733 71.5926 13.7161 71.4813 13.9943C72.1661 14.7518 72.5856 15.3425 72.5856 16.5152C72.5856 20.6454 70.0646 20.975 67.6721 21.2446C68.0659 21.5828 68.3997 22.2248 68.3997 23.2306C68.3997 24.6729 68.3869 26.4577 68.3869 26.8087C68.3869 27.0869 68.5837 27.425 69.1273 27.3265C73.4073 25.9056 76.3092 21.8438 76.3092 17.0973C76.3092 11.1609 71.4942 6.65405 65.5578 6.65405ZM59.2405 21.4158C59.1848 21.4586 59.1977 21.5571 59.2704 21.6384C59.3389 21.7069 59.4373 21.7368 59.493 21.6812C59.5486 21.6384 59.5358 21.54 59.463 21.4586C59.3945 21.3901 59.2961 21.3602 59.2405 21.4158ZM58.7782 21.0691C58.7483 21.1248 58.7911 21.1933 58.8767 21.2361C58.9451 21.2789 59.0307 21.266 59.0607 21.2061C59.0907 21.1505 59.0479 21.082 58.9623 21.0392C58.8767 21.0135 58.8082 21.0263 58.7782 21.0691ZM60.165 22.5928C60.0965 22.6485 60.1222 22.7769 60.2206 22.8582C60.319 22.9566 60.4432 22.9695 60.4988 22.901C60.5544 22.8454 60.5288 22.717 60.4432 22.6356C60.349 22.5372 60.2206 22.5244 60.165 22.5928ZM59.677 21.9637C59.6085 22.0065 59.6085 22.1178 59.677 22.2162C59.7455 22.3146 59.8611 22.3574 59.9167 22.3146C59.9852 22.259 59.9852 22.1477 59.9167 22.0493C59.8568 21.9508 59.7455 21.908 59.677 21.9637Z" fill="white"/>
</g>
<circle cx="65.6948" cy="17.5" r="17.2407" stroke="white" stroke-width="0.517467"/>
<g clip-path="url(#clip2)">
<path d="M122.988 6.68054H104.787C103.953 6.68054 103.276 7.36764 103.276 8.21111V26.3789C103.276 27.2223 103.953 27.9094 104.787 27.9094H122.988C123.822 27.9094 124.505 27.2223 124.505 26.3789V8.21111C124.505 7.36764 123.822 6.68054 122.988 6.68054ZM109.692 24.8767H106.545V14.7456H109.696V24.8767H109.692ZM108.118 13.362C107.109 13.362 106.294 12.5422 106.294 11.5376C106.294 10.533 107.109 9.71324 108.118 9.71324C109.123 9.71324 109.943 10.533 109.943 11.5376C109.943 12.5469 109.128 13.362 108.118 13.362V13.362ZM121.486 24.8767H118.34V19.9486C118.34 18.7734 118.316 17.2618 116.705 17.2618C115.065 17.2618 114.814 18.5412 114.814 19.8633V24.8767H111.668V14.7456H114.686V16.1293H114.729C115.151 15.3332 116.179 14.4945 117.709 14.4945C120.894 14.4945 121.486 16.5937 121.486 19.3231V24.8767V24.8767Z" fill="white"/>
</g>
<circle cx="113.89" cy="17.5" r="17.2407" stroke="white" stroke-width="0.517467"/>
<defs>
<clipPath id="clip0">
<rect width="21.2289" height="21.2289" fill="white" transform="matrix(-1 0 0 1 28.114 6.8855)"/>
</clipPath>
<clipPath id="clip1">
<rect width="21.2289" height="21.9137" fill="white" transform="translate(55.0803 6.31165)"/>
</clipPath>
<clipPath id="clip2">
<rect width="21.2289" height="24.2616" fill="white" transform="translate(103.276 5.16418)"/>
</clipPath>
</defs>
</svg>
